<?xml version="1.0" encoding="UTF-8" standalone="yes"?>
<!DOCTYPE svg PUBLIC "-//W3C//DTD SVG 1.1//EN" "http://www.w3.org/Graphics/SVG/1.1/DTD/svg11.dtd">

<svg width="175" height="175" viewBox="0 0 175 175" xmlns="http://www.w3.org/2000/svg" xmlns:xlink="http://www.w3.org/1999/xlink" version="1.1" baseProfile="full">
    <g transform="scale(0.500000,-0.500000) translate(0,-350)">
        <path d="M 105.684324 3.929896 L 101.626267 5.429043 L 97.611799 7.041282 L 93.644071 8.765348 L 89.726198 10.599888 L 85.861254 12.543461 L 82.052274 14.594543 L 78.302247 16.751523 L 74.614116 19.012709 L 70.990777 21.376325 L 67.435073 23.840516 L 63.949795 26.403348 L 60.537680 29.062810 L 57.201405 31.816813 L 53.943588 34.663197 L 50.766788 37.599727 L 47.673497 40.624098 L 44.666144 43.733936 L 41.747089 46.926801 L 38.918623 50.200185 L 36.182966 53.551521 L 33.542267 56.978177 L 30.998596 60.477464 L 28.553952 64.046635 L 26.210252 67.682888 L 23.969336 71.383370 L 21.832964 75.145176 L 19.802812 78.965353 L 17.880474 82.840902 L 16.067459 86.768782 L 14.365189 90.745910 L 12.775000 94.769163 L 11.298142 98.835385 L 9.935773 102.941383 L 8.688962 107.083934 L 7.558689 111.259787 L 6.545840 115.465665 L 5.651210 119.698265 L 4.875501 123.954266 L 4.219323 128.230327 L 3.683191 132.523092 L 3.267524 136.829191 L 2.972650 141.145244 L 2.798801 145.467864 L 2.746111 149.793658 L 2.814623 154.119230 L 3.004284 158.441185 L 3.314943 162.756131 L 3.746358 167.060681 L 4.298189 171.351456 L 4.970004 175.625088 L 5.761275 179.878223 L 6.671382 184.107523 L 7.699609 188.309667 L 8.845149 192.481358 L 10.107105 196.619321 L 11.484484 200.720308 L 12.976206 204.781100 L 14.581100 208.798510 L 16.297907 212.769384 L 18.125278 216.690606 L 20.061780 220.559098 L 22.105892 224.371823 L 24.256010 228.125789 L 26.510446 231.818049 L 28.867431 235.445705 L 31.325115 239.005910 L 33.881568 242.495869 L 36.534785 245.912843 L 39.282682 249.254150 L 42.123102 252.517166 L 45.053817 255.699332 L 48.072526 258.798149 L 51.176858 261.811185 L 54.364379 264.736075 L 57.632585 267.570523 L 60.978912 270.312304 L 64.400733 272.959267 L 67.895361 275.509333 L 71.460055 277.960501 L 75.092016 280.310848 L 78.788393 282.558527 L 82.546285 284.701776 L 86.362743 286.738911 L 90.234770 288.668334 L 94.159327 290.488531 L 98.133335 292.198072 L 102.153674 293.795616 L 106.217187 295.279908 L 110.320687 296.649785 L 114.460950 297.904170 L 118.634729 299.042079 L 122.838747 300.062619 L 127.069704 300.964988 L 131.324279 301.748480 L 135.599133 302.412477 L 139.890910 302.956460 L 144.196242 303.380001 L 148.511749 303.682768 L 152.834044 303.864524 L 157.159734 303.925125 L 161.485424 303.864524 L 165.807719 303.682768 L 170.123226 303.380001 L 174.428557 302.956460 L 178.720334 302.412477 L 182.995188 301.748480 L 187.249763 300.964988 L 191.480720 300.062619 L 195.684738 299.042079 L 199.858517 297.904170 L 203.998781 296.649785 L 208.102280 295.279908 L 212.165794 293.795616 L 216.186132 292.198072 L 220.160140 290.488531 L 224.084698 288.668334 L 227.956725 286.738911 L 231.773182 284.701776 L 235.531074 282.558527 L 239.227451 280.310848 L 242.859412 277.960501 L 246.424106 275.509333 L 249.918735 272.959267 L 253.340556 270.312304 L 256.686882 267.570523 L 259.955089 264.736075 L 263.142609 261.811185 L 266.246942 258.798149 L 269.265650 255.699332 L 272.196365 252.517166 L 275.036786 249.254150 L 277.784683 245.912843 L 280.437899 242.495869 L 282.994353 239.005910 L 285.452037 235.445705 L 287.809022 231.818049 L 290.063458 228.125789 L 292.213576 224.371823 L 294.257688 220.559098 L 296.194190 216.690606 L 298.021561 212.769384 L 299.738367 208.798510 L 301.343261 204.781100 L 302.834984 200.720308 L 304.212363 196.619321 L 305.474318 192.481358 L 306.619859 188.309667 L 307.648086 184.107523 L 308.558192 179.878223 L 309.349463 175.625088 L 310.021278 171.351456 L 310.573110 167.060681 L 311.004524 162.756131 L 311.315184 158.441185 L 311.504844 154.119230 L 311.573356 149.793658 L 311.520667 145.467864 L 311.346817 141.145244 L 311.051943 136.829191 L 310.636277 132.523092 L 310.100144 128.230327 L 309.443966 123.954266 L 308.668258 119.698265 L 307.773628 115.465665 L 306.760779 111.259787 L 305.630505 107.083934 L 304.383695 102.941383 L 303.021326 98.835385 L 301.544467 94.769163 L 299.954279 90.745910 L 298.252009 86.768782 L 296.438993 82.840902 L 294.516655 78.965353 L 292.486503 75.145176 L 290.350131 71.383370 L 288.109216 67.682888 L 285.765516 64.046635 L 283.320871 60.477464 L 280.777201 56.978177 L 278.136501 53.551521 L 275.400845 50.200185 L 272.572379 46.926801 L 269.653324 43.733936 L 266.645970 40.624098 L 263.552680 37.599727 L 260.375879 34.663197 L 257.118063 31.816813 L 253.781788 29.062810 L 250.369672 26.403348 L 246.884395 23.840516 L 243.328691 21.376325 L 239.705351 19.012709 L 236.017221 16.751523 L 232.267194 14.594543 L 228.458213 12.543461 L 224.593270 10.599888 L 220.675396 8.765348 L 216.707668 7.041282 L 212.693201 5.429043 L 208.635143 3.929896 L 208.302976 4.869324 L 207.970808 5.808752 L 207.638640 6.748179 L 207.306472 7.687607 L 206.974305 8.627035 L 206.642137 9.566463 L 206.309969 10.505891 L 205.977801 11.445318 L 205.645634 12.384746 L 205.313466 13.324174 L 204.981298 14.263602 L 204.649130 15.203029 L 204.316963 16.142457 L 203.984795 17.081885 L 203.652627 18.021313 L 203.320459 18.960741 L 202.988292 19.900168 L 202.656124 20.839596 L 202.323956 21.779024 L 201.991788 22.718452 L 201.659621 23.657879 L 201.327453 24.597307 L 200.995285 25.536735 L 200.663117 26.476163 L 200.330950 27.415590 L 199.998782 28.355018 L 199.666614 29.294446 L 199.334446 30.233874 L 199.002279 31.173302 L 198.670111 32.112729 L 198.337943 33.052157 L 198.005775 33.991585 L 197.673608 34.931013 L 197.341440 35.870440 L 197.009272 36.809868 L 196.677104 37.749296 L 196.344937 38.688724 L 196.012769 39.628152 L 195.680601 40.567579 L 195.348433 41.507007 L 195.016265 42.446435 L 194.684098 43.385863 L 194.351930 44.325290 L 194.019762 45.264718 L 193.687594 46.204146 L 193.355427 47.143574 L 193.023259 48.083002 L 192.691091 49.022429 L 192.358923 49.961857 L 192.026756 50.901285 L 191.694588 51.840713 L 191.362420 52.780140 L 191.030252 53.719568 L 190.698085 54.658996 L 190.365917 55.598424 L 190.033749 56.537851 L 189.701581 57.477279 L 189.369414 58.416707 L 189.037246 59.356135 L 188.705078 60.295563 L 188.372910 61.234990 L 188.040743 62.174418 L 187.708575 63.113846 L 187.376407 64.053274 L 187.044239 64.992701 L 186.712072 65.932129 L 186.379904 66.871557 L 186.047736 67.810985 L 185.715568 68.750413 L 185.383401 69.689840 L 185.051233 70.629268 L 184.719065 71.568696 L 184.386897 72.508124 L 184.054730 73.447551 L 183.722562 74.386979 L 183.390394 75.326407 L 183.058226 76.265835 L 182.726059 77.205263 L 182.393891 78.144690 L 182.061723 79.084118 L 181.729555 80.023546 L 181.397387 80.962974 L 181.065220 81.902401 L 180.733052 82.841829 L 180.400884 83.781257 L 180.068716 84.720685 L 179.736549 85.660113 L 181.516389 86.317629 L 183.277111 87.024748 L 185.017333 87.780913 L 186.735690 88.585532 L 188.430832 89.437972 L 190.101428 90.337565 L 191.746168 91.283604 L 193.363761 92.275346 L 194.952937 93.312015 L 196.512448 94.392794 L 198.041070 95.516838 L 199.537604 96.683262 L 201.000875 97.891152 L 202.429734 99.139559 L 203.823060 100.427504 L 205.179760 101.753976 L 206.498767 103.117933 L 207.779048 104.518304 L 209.019596 105.953992 L 210.219439 107.423868 L 211.377635 108.926780 L 212.493274 110.461546 L 213.565481 112.026964 L 214.593414 113.621804 L 215.576267 115.244813 L 216.513267 116.894719 L 217.403680 118.570227 L 218.246806 120.270020 L 219.041984 121.992766 L 219.788590 123.737111 L 220.486037 125.501686 L 221.133779 127.285107 L 221.731306 129.085974 L 222.278150 130.902873 L 222.773881 132.734378 L 223.218111 134.579051 L 223.610490 136.435445 L 223.950711 138.302102 L 224.238507 140.177558 L 224.473652 142.060339 L 224.655961 143.948969 L 224.785291 145.841965 L 224.861540 147.737841 L 224.884649 149.635109 L 224.854600 151.532280 L 224.771416 153.427864 L 224.635163 155.320374 L 224.445947 157.208325 L 224.203917 159.090234 L 223.909263 160.964624 L 223.562216 162.830024 L 223.163049 164.684970 L 222.712074 166.528006 L 222.209647 168.357686 L 221.656161 170.172572 L 221.052050 171.971241 L 220.397789 173.752281 L 219.693892 175.514293 L 218.940911 177.255896 L 218.139436 178.975721 L 217.290098 180.672419 L 216.393563 182.344658 L 215.450533 183.991126 L 214.461751 185.610529 L 213.427991 187.201598 L 212.350065 188.763083 L 211.228819 190.293759 L 210.065134 191.792424 L 208.859922 193.257901 L 207.614130 194.689042 L 206.328736 196.084721 L 205.004748 197.443844 L 203.643206 198.765344 L 202.245178 200.048184 L 200.811762 201.291356 L 199.344082 202.493885 L 197.843292 203.654828 L 196.310568 204.773272 L 194.747114 205.848340 L 193.154157 206.879188 L 191.532947 207.865008 L 189.884758 208.805024 L 188.210882 209.698500 L 186.512633 210.544733 L 184.791345 211.343061 L 183.048368 212.092856 L 181.285071 212.793529 L 179.502838 213.444531 L 177.703067 214.045351 L 175.887171 214.595517 L 174.056576 215.094597 L 172.212719 215.542200 L 170.357045 215.937974 L 168.491014 216.281609 L 166.616088 216.572834 L 164.733739 216.811422 L 162.845446 216.997185 L 160.952690 217.129977 L 159.056956 217.209694 L 157.159734 217.236273 L 155.262511 217.209694 L 153.366778 217.129977 L 151.474022 216.997185 L 149.585728 216.811422 L 147.703380 216.572834 L 145.828454 216.281609 L 143.962422 215.937974 L 142.106749 215.542200 L 140.262891 215.094597 L 138.432296 214.595517 L 136.616400 214.045351 L 134.816630 213.444531 L 133.034396 212.793529 L 131.271099 212.092856 L 129.528122 211.343061 L 127.806834 210.544733 L 126.108586 209.698500 L 124.434710 208.805024 L 122.786520 207.865008 L 121.165311 206.879188 L 119.572354 205.848340 L 118.008900 204.773272 L 116.476176 203.654828 L 114.975385 202.493885 L 113.507706 201.291356 L 112.074290 200.048184 L 110.676262 198.765344 L 109.314720 197.443844 L 107.990732 196.084721 L 106.705337 194.689042 L 105.459545 193.257901 L 104.254334 191.792424 L 103.090648 190.293759 L 101.969403 188.763083 L 100.891477 187.201598 L 99.857717 185.610529 L 98.868934 183.991126 L 97.925905 182.344658 L 97.029369 180.672419 L 96.180031 178.975721 L 95.378557 177.255896 L 94.625575 175.514293 L 93.921678 173.752281 L 93.267418 171.971241 L 92.663307 170.172572 L 92.109821 168.357686 L 91.607393 166.528006 L 91.156419 164.684970 L 90.757252 162.830024 L 90.410205 160.964624 L 90.115551 159.090234 L 89.873520 157.208325 L 89.684305 155.320374 L 89.548051 153.427864 L 89.464867 151.532280 L 89.434818 149.635109 L 89.457927 147.737841 L 89.534177 145.841965 L 89.663507 143.948969 L 89.845816 142.060339 L 90.080960 140.177558 L 90.368756 138.302102 L 90.708977 136.435445 L 91.101357 134.579051 L 91.545587 132.734378 L 92.041318 130.902873 L 92.588162 129.085974 L 93.185689 127.285107 L 93.833430 125.501686 L 94.530878 123.737111 L 95.277483 121.992766 L 96.072662 120.270020 L 96.915788 118.570227 L 97.806201 116.894719 L 98.743201 115.244813 L 99.726053 113.621804 L 100.753987 112.026964 L 101.826193 110.461546 L 102.941833 108.926780 L 104.100028 107.423868 L 105.299871 105.953992 L 106.540420 104.518304 L 107.820700 103.117933 L 109.139708 101.753976 L 110.496407 100.427504 L 111.889733 99.139559 L 113.318593 97.891152 L 114.781864 96.683262 L 116.278398 95.516838 L 117.807020 94.392794 L 119.366531 93.312015 L 120.955707 92.275346 L 122.573299 91.283604 L 124.218039 90.337565 L 125.888636 89.437972 L 127.583778 88.585532 L 129.302134 87.780913 L 131.042356 87.024748 L 132.803079 86.317629 L 134.582919 85.660113 L 134.250751 84.720685 L 133.918583 83.781257 L 133.586416 82.841829 L 133.254248 81.902401 L 132.922080 80.962974 L 132.589912 80.023546 L 132.257745 79.084118 L 131.925577 78.144690 L 131.593409 77.205263 L 131.261241 76.265835 L 130.929074 75.326407 L 130.596906 74.386979 L 130.264738 73.447551 L 129.932570 72.508124 L 129.600402 71.568696 L 129.268235 70.629268 L 128.936067 69.689840 L 128.603899 68.750413 L 128.271731 67.810985 L 127.939564 66.871557 L 127.607396 65.932129 L 127.275228 64.992701 L 126.943060 64.053274 L 126.610893 63.113846 L 126.278725 62.174418 L 125.946557 61.234990 L 125.614389 60.295563 L 125.282222 59.356135 L 124.950054 58.416707 L 124.617886 57.477279 L 124.285718 56.537851 L 123.953551 55.598424 L 123.621383 54.658996 L 123.289215 53.719568 L 122.957047 52.780140 L 122.624880 51.840713 L 122.292712 50.901285 L 121.960544 49.961857 L 121.628376 49.022429 L 121.296209 48.083002 L 120.964041 47.143574 L 120.631873 46.204146 L 120.299705 45.264718 L 119.967538 44.325290 L 119.635370 43.385863 L 119.303202 42.446435 L 118.971034 41.507007 L 118.638867 40.567579 L 118.306699 39.628152 L 117.974531 38.688724 L 117.642363 37.749296 L 117.310196 36.809868 L 116.978028 35.870440 L 116.645860 34.931013 L 116.313692 33.991585 L 115.981525 33.052157 L 115.649357 32.112729 L 115.317189 31.173302 L 114.985021 30.233874 L 114.652853 29.294446 L 114.320686 28.355018 L 113.988518 27.415590 L 113.656350 26.476163 L 113.324182 25.536735 L 112.992015 24.597307 L 112.659847 23.657879 L 112.327679 22.718452 L 111.995511 21.779024 L 111.663344 20.839596 L 111.331176 19.900168 L 110.999008 18.960741 L 110.666840 18.021313 L 110.334673 17.081885 L 110.002505 16.142457 L 109.670337 15.203029 L 109.338169 14.263602 L 109.006002 13.324174 L 108.673834 12.384746 L 108.341666 11.445318 L 108.009498 10.505891 L 107.677331 9.566463 L 107.345163 8.627035 L 107.012995 7.687607 L 106.680827 6.748179 L 106.348660 5.808752 L 106.016492 4.869324 L 105.684324 3.929896 Z" transform="scale(1.000000,1.000000) translate(22.000000,16.000000)" fill="#febe0a" opacity="1.000000"></path>
    </g>
</svg>