<?xml version="1.0" encoding="UTF-8" standalone="yes"?>
<!DOCTYPE svg PUBLIC "-//W3C//DTD SVG 1.1//EN" "http://www.w3.org/Graphics/SVG/1.1/DTD/svg11.dtd">

<svg width="175" height="75" viewBox="0 0 175 75" xmlns="http://www.w3.org/2000/svg" xmlns:xlink="http://www.w3.org/1999/xlink" version="1.1" baseProfile="full">
    <g transform="scale(0.500000,-0.500000) translate(0,-150)">
        <path d="M 173.401026 95.811953 L 173.115775 91.393192 L 172.260019 87.178964 L 170.833757 83.169265 L 168.836987 79.364093 L 166.269705 75.763444 L 163.131911 72.367314 L 159.423601 69.175700 L 155.144774 66.188599 L 154.821846 63.282238 L 154.714202 60.591163 L 155.004836 56.909765 L 155.876741 53.529780 L 157.329921 50.451197 L 159.364379 47.674004 L 159.629449 47.412970 L 160.166314 46.931270 L 162.055441 45.305867 L 169.095306 39.407021 L 165.391027 39.416439 L 161.899352 39.616922 L 158.620279 40.008471 L 155.553805 40.591087 L 152.699928 41.364770 L 150.058644 42.329521 L 147.629951 43.485340 L 145.413847 44.832229 L 143.859745 45.986703 L 142.383689 47.297256 L 139.665707 50.386602 L 137.259892 54.100280 L 135.166233 58.438304 L 129.009052 57.534100 L 122.765760 57.232702 L 119.229680 57.367255 L 115.596736 57.770914 L 111.866914 58.443682 L 108.040198 59.385562 L 107.180398 62.172179 L 106.108007 64.891512 L 104.823022 67.543563 L 103.325444 70.128335 L 101.615269 72.645829 L 99.692496 75.096049 L 97.557124 77.478997 L 95.209152 79.794674 L 92.562471 82.109008 L 89.875432 84.143465 L 87.148031 85.898046 L 84.380267 87.372752 L 81.572136 88.567586 L 78.723637 89.482547 L 75.834767 90.117638 L 72.905523 90.472860 L 72.324251 93.486865 L 72.130493 95.811953 L 72.361924 99.648093 L 73.056216 103.320067 L 74.213372 106.827880 L 75.833393 110.171533 L 77.916282 113.351030 L 80.462040 116.366374 L 83.470668 119.217568 L 86.942170 121.904615 L 90.685467 124.266045 L 94.638656 126.312613 L 98.801741 128.044321 L 103.174726 129.461169 L 107.757617 130.563160 L 112.550416 131.350294 L 117.553129 131.822574 L 122.765760 131.980000 L 127.978391 131.822574 L 132.981104 131.350294 L 137.773905 130.563160 L 142.356796 129.461169 L 146.729781 128.044321 L 150.892866 126.312613 L 154.846054 124.266045 L 158.589350 121.904615 L 162.060849 119.217568 L 165.069477 116.366374 L 167.615235 113.351030 L 169.698124 110.171533 L 171.318146 106.827880 L 172.475303 103.320067 L 173.169596 99.648093 L 173.401026 95.811953 Z M 104.595622 54.046469 L 104.363518 50.136324 L 103.667207 46.371506 L 102.506687 42.752014 L 100.881956 39.277843 L 98.793012 35.948992 L 96.239854 32.765456 L 93.222480 29.727233 L 89.740888 26.834319 L 85.930988 24.190327 L 81.928687 21.898872 L 77.733982 19.959952 L 73.346868 18.373565 L 68.767342 17.139712 L 63.995397 16.258389 L 59.031032 15.729597 L 53.874241 15.553333 L 48.852684 15.736325 L 43.949554 16.285302 L 39.164832 17.200267 L 34.498501 18.481223 L 33.567389 14.384044 L 32.194945 10.833163 L 30.381167 7.828577 L 29.308777 6.531144 L 28.126053 5.370284 L 26.832994 4.345996 L 25.429600 3.458281 L 23.915872 2.707139 L 22.291807 2.092568 L 18.712671 1.273142 L 14.692189 1.000000 L 11.672799 1.290634 L 8.384313 2.162538 L 4.826717 3.615718 L 1.000000 5.650177 L 4.406909 6.320253 L 7.480112 7.555452 L 10.219620 9.355780 L 12.625444 11.721242 L 13.674967 13.090331 L 14.584553 14.549566 L 15.983911 17.738482 L 16.823523 21.288005 L 17.103393 25.198146 L 17.017278 27.695463 L 13.787975 30.537247 L 10.989251 33.508194 L 8.621104 36.608306 L 6.683533 39.837588 L 5.176536 43.196043 L 4.100112 46.683672 L 3.454258 50.300480 L 3.238974 54.046469 L 3.470405 57.928358 L 4.164697 61.651464 L 5.321853 65.215789 L 6.941875 68.621337 L 9.024764 71.868111 L 11.570522 74.956114 L 14.579150 77.885349 L 18.050651 80.655818 L 21.792602 83.138345 L 25.741754 85.289864 L 29.898111 87.110376 L 34.261678 88.599884 L 38.832459 89.758388 L 43.610458 90.585890 L 48.595679 91.082390 L 53.788126 91.247889 L 58.965100 91.081044 L 63.946957 90.580508 L 68.733702 89.746280 L 73.325339 88.578357 L 77.721872 87.076740 L 81.923305 85.241426 L 85.929642 83.072415 L 89.740888 80.569704 L 93.222480 77.819417 L 96.239854 74.907673 L 98.793012 71.834472 L 100.881956 68.599808 L 102.506687 65.203679 L 103.667207 61.646081 L 104.363518 57.927013 L 104.595622 54.046469 Z" transform="scale(1.000000,1.000000) translate(28.297310,8.510000)" fill="#5972ff" opacity="1.000000"></path>
        <path d="M 15.794922 7.127930 Q 18.456055 7.127930 20.116211 7.713867 Q 23.265625 8.836914 23.265625 11.888672 Q 23.265625 13.670898 21.703125 14.647461 Q 20.140625 15.599609 16.795898 16.332031 L 12.987305 17.186523 Q 7.372070 18.456055 5.223633 19.945312 Q 1.585938 22.435547 1.585938 27.733398 Q 1.585938 32.567383 5.101562 35.765625 Q 8.617188 38.963867 15.428711 38.963867 Q 21.117188 38.963867 25.133301 35.948730 Q 29.149414 32.933594 29.344727 27.196289 L 22.118164 27.196289 Q 21.922852 30.443359 19.286133 31.810547 Q 17.528320 32.713867 14.916016 32.713867 Q 12.010742 32.713867 10.277344 31.541992 Q 8.543945 30.370117 8.543945 28.270508 Q 8.543945 26.341797 10.252930 25.389648 Q 11.351562 24.754883 14.940430 23.900391 L 21.141602 22.411133 Q 25.218750 21.434570 27.293945 19.798828 Q 30.516602 17.259766 30.516602 12.450195 Q 30.516602 7.518555 26.744629 4.259277 Q 22.972656 1.000000 16.087891 1.000000 Q 9.056641 1.000000 5.028320 4.210449 Q 1.000000 7.420898 1.000000 13.036133 L 8.177734 13.036133 Q 8.519531 10.570312 9.520508 9.349609 Q 11.351562 7.127930 15.794922 7.127930 Z M 57.713867 25.169922 Q 61.083008 20.946289 61.083008 15.184570 Q 61.083008 9.325195 57.713867 5.162598 Q 54.344727 1.000000 47.484375 1.000000 Q 40.624023 1.000000 37.254883 5.162598 Q 33.885742 9.325195 33.885742 15.184570 Q 33.885742 20.946289 37.254883 25.169922 Q 40.624023 29.393555 47.484375 29.393555 Q 54.344727 29.393555 57.713867 25.169922 Z M 47.459961 23.509766 Q 44.408203 23.509766 42.760254 21.349121 Q 41.112305 19.188477 41.112305 15.184570 Q 41.112305 11.180664 42.760254 9.007812 Q 44.408203 6.834961 47.459961 6.834961 Q 50.511719 6.834961 52.147461 9.007812 Q 53.783203 11.180664 53.783203 15.184570 Q 53.783203 19.188477 52.147461 21.349121 Q 50.511719 23.509766 47.459961 23.509766 Z M 89.085938 18.993164 L 81.957031 18.993164 Q 81.761719 20.482422 80.956055 21.678711 Q 79.784180 23.290039 77.318359 23.290039 Q 73.802734 23.290039 72.508789 19.798828 Q 71.825195 17.943359 71.825195 14.867188 Q 71.825195 11.937500 72.508789 10.155273 Q 73.753906 6.834961 77.196289 6.834961 Q 79.637695 6.834961 80.663086 8.153320 Q 81.688477 9.471680 81.908203 11.571289 L 89.012695 11.571289 Q 88.768555 8.397461 86.717773 5.565430 Q 83.446289 1.000000 77.025391 1.000000 Q 70.604492 1.000000 67.577148 4.808594 Q 64.549805 8.617188 64.549805 14.696289 Q 64.549805 21.556641 67.894531 25.365234 Q 71.239258 29.173828 77.123047 29.173828 Q 82.127930 29.173828 85.313965 26.927734 Q 88.500000 24.681641 89.085938 18.993164 Z M 101.024414 28.539062 L 101.024414 1.927734 L 93.968750 1.927734 L 93.968750 28.539062 Z M 101.024414 38.133789 L 101.024414 31.712891 L 93.968750 31.712891 L 93.968750 38.133789 Z M 108.763672 25.658203 Q 111.522461 29.173828 118.236328 29.173828 Q 122.606445 29.173828 126.000000 27.440430 Q 129.393555 25.707031 129.393555 20.897461 L 129.393555 8.690430 Q 129.393555 7.420898 129.442383 5.614258 Q 129.515625 4.247070 129.857422 3.758789 Q 130.199219 3.270508 130.882812 2.953125 L 130.882812 1.927734 L 123.314453 1.927734 Q 122.997070 2.733398 122.875000 3.441406 Q 122.752930 4.149414 122.679688 5.052734 Q 121.239258 3.490234 119.359375 2.391602 Q 117.113281 1.097656 114.281250 1.097656 Q 110.667969 1.097656 108.312012 3.160645 Q 105.956055 5.223633 105.956055 9.007812 Q 105.956055 13.915039 109.740234 16.112305 Q 111.815430 17.308594 115.843750 17.821289 L 118.211914 18.114258 Q 120.140625 18.358398 120.970703 18.724609 Q 122.459961 19.359375 122.459961 20.702148 Q 122.459961 22.337891 121.324707 22.960449 Q 120.189453 23.583008 117.992188 23.583008 Q 115.526367 23.583008 114.500977 22.362305 Q 113.768555 21.458984 113.524414 19.920898 L 106.810547 19.920898 Q 107.030273 23.412109 108.763672 25.658203 Z M 113.939453 6.957031 Q 114.916016 6.151367 116.332031 6.151367 Q 118.578125 6.151367 120.470215 7.469727 Q 122.362305 8.788086 122.435547 12.279297 L 122.435547 14.867188 Q 121.776367 14.452148 121.104980 14.195801 Q 120.433594 13.939453 119.261719 13.719727 L 117.699219 13.426758 Q 115.501953 13.036133 114.549805 12.474609 Q 112.938477 11.522461 112.938477 9.520508 Q 112.938477 7.738281 113.939453 6.957031 Z M 135.716797 37.914062 L 142.674805 37.914062 L 142.674805 1.927734 L 135.716797 1.927734 Z M 171.654297 25.169922 Q 175.023438 20.946289 175.023438 15.184570 Q 175.023438 9.325195 171.654297 5.162598 Q 168.285156 1.000000 161.424805 1.000000 Q 154.564453 1.000000 151.195312 5.162598 Q 147.826172 9.325195 147.826172 15.184570 Q 147.826172 20.946289 151.195312 25.169922 Q 154.564453 29.393555 161.424805 29.393555 Q 168.285156 29.393555 171.654297 25.169922 Z M 161.400391 23.509766 Q 158.348633 23.509766 156.700684 21.349121 Q 155.052734 19.188477 155.052734 15.184570 Q 155.052734 11.180664 156.700684 9.007812 Q 158.348633 6.834961 161.400391 6.834961 Q 164.452148 6.834961 166.087891 9.007812 Q 167.723633 11.180664 167.723633 15.184570 Q 167.723633 19.188477 166.087891 21.349121 Q 164.452148 23.509766 161.400391 23.509766 Z M 203.026367 18.993164 L 195.897461 18.993164 Q 195.702148 20.482422 194.896484 21.678711 Q 193.724609 23.290039 191.258789 23.290039 Q 187.743164 23.290039 186.449219 19.798828 Q 185.765625 17.943359 185.765625 14.867188 Q 185.765625 11.937500 186.449219 10.155273 Q 187.694336 6.834961 191.136719 6.834961 Q 193.578125 6.834961 194.603516 8.153320 Q 195.628906 9.471680 195.848633 11.571289 L 202.953125 11.571289 Q 202.708984 8.397461 200.658203 5.565430 Q 197.386719 1.000000 190.965820 1.000000 Q 184.544922 1.000000 181.517578 4.808594 Q 178.490234 8.617188 178.490234 14.696289 Q 178.490234 21.556641 181.834961 25.365234 Q 185.179688 29.173828 191.063477 29.173828 Q 196.068359 29.173828 199.254395 26.927734 Q 202.440430 24.681641 203.026367 18.993164 Z" transform="scale(1.000000,1.000000) translate(131.475810,16.780706)" fill="#5972ff" opacity="1.000000"></path>
    </g>
</svg>